<svg width="120" height="40" viewBox="0 0 120 40" fill="none" xmlns="http://www.w3.org/2000/svg">
<path d="M0.0898028 35.8277V11.132L3.1431 10.9075L0 9.33591V1.70268L7.49853 1.07406L11.9887 3.31912V10.9524L8.80067 11.2218L11.854 12.7484V37.3993L4.57994 38.0279L0.0898028 35.8277ZM0.449014 2.10679V8.842L7.04952 8.30318V1.56797L0.449014 2.10679ZM0.538817 11.5361V35.3338L6.91481 34.795V10.9973L0.538817 11.5361Z" fill="#FF7F7F"/>
<path d="M32.517 38.0728C31.8285 38.1027 31.155 38.1327 30.4965 38.1626C29.8678 38.2225 29.2542 38.2524 28.6555 38.2524C24.4048 38.2524 21.2617 37.4741 19.2262 35.9175C17.1907 34.3609 16.1729 31.8016 16.1729 28.2394V19.6632L13.2992 18.2264V11.4463L16.1729 11.2218V3.90284L23.4469 3.22932L27.9371 5.47439V10.6381L31.6639 12.479V19.2591L27.9371 19.5734V28.5986L29.4637 28.4639L33.9539 30.709L32.517 38.0728ZM28.88 29.0027C28.2215 29.0626 27.6377 29.1225 27.1289 29.1823C26.6499 29.2123 26.2009 29.2272 25.7818 29.2272C24.5246 29.2272 23.7463 29.0027 23.4469 28.5537C23.1476 28.1047 22.9979 27.3264 22.9979 26.2188V16.9242L26.7247 16.6099V10.7279L22.9979 11.0422V3.72324L16.6219 4.30696V11.6259L13.7482 11.8504V17.7325L16.6219 17.508V28.2394C16.6219 30.0354 16.8464 31.4723 17.2955 32.5499C17.7445 33.6276 18.5078 34.4058 19.5854 34.8848C20.693 35.3637 22.2196 35.6032 24.1654 35.6032C24.6742 35.6032 25.2131 35.5883 25.7818 35.5583C26.3506 35.5284 26.9642 35.4835 27.6228 35.4236L28.88 29.0027Z" fill="#FF7F7F"/>
<path d="M58.985 36.7707C58.0271 37.1598 57.0393 37.3544 56.0215 37.3544C55.0935 37.3544 54.2404 37.2197 53.4621 36.9503C52.6838 36.7108 52.0851 36.4713 51.6661 36.2318C50.3489 37.8184 48.4182 38.7314 45.8738 38.9708C45.6343 39.0008 45.3948 39.0157 45.1554 39.0157C44.9159 39.0157 44.6764 39.0157 44.4369 39.0157C42.581 39.0157 40.8748 38.6864 39.3182 38.0279C37.7616 37.3993 36.5044 36.4414 35.5465 35.1542C34.6185 33.8371 34.1545 32.2207 34.1545 30.3049C34.1545 28.2394 34.7233 26.593 35.8608 25.3657C37.0282 24.1384 38.7644 22.971 41.0693 21.8634L38.7794 21.1001L34.2892 18.855C35.0376 16.2507 36.2499 14.29 37.9262 12.9729C39.6325 11.6558 41.5632 10.8925 43.7185 10.683C43.9879 10.653 44.2573 10.6381 44.5267 10.6381C44.7961 10.6081 45.0506 10.5932 45.2901 10.5932C47.4453 10.5932 49.406 10.9973 51.1721 11.8055C52.9383 12.5838 54.3452 13.7063 55.3929 15.1731C56.4406 16.6099 56.9644 18.3012 56.9644 20.2469V28.7782L59.7034 30.1253L58.985 36.7707ZM54.6745 28.6435C53.956 28.9728 53.4172 29.1374 53.058 29.1374C52.3695 29.1374 52.0253 28.6884 52.0253 27.7904V18.0019C52.0253 13.392 49.7054 11.0871 45.0656 11.0871C44.856 11.0871 44.6465 11.0871 44.4369 11.0871C44.2274 11.0871 44.0029 11.102 43.7634 11.132C41.6979 11.3415 39.857 12.0599 38.2405 13.2872C36.6241 14.5145 35.4866 16.2956 34.828 18.6305L39.857 20.2918C40.1863 19.2741 40.6353 18.4509 41.204 17.8223C41.8027 17.1937 42.4762 16.8494 43.2246 16.7895C43.3144 16.7895 43.4042 16.7895 43.494 16.7895C43.5838 16.7596 43.6586 16.7446 43.7185 16.7446C44.407 16.7446 44.9308 16.9093 45.2901 17.2386C45.6493 17.5678 45.8289 18.0168 45.8289 18.5856C45.8289 19.2142 45.6343 19.7231 45.2452 20.1122C44.856 20.4715 44.3172 20.8157 43.6287 21.145L41.6081 22.0879C39.3032 23.1655 37.5521 24.303 36.3547 25.5004C35.1873 26.6678 34.6035 28.2693 34.6035 30.3049C34.6035 34.316 36.4894 36.3216 40.2611 36.3216C40.4407 36.3216 40.6203 36.3216 40.7999 36.3216C40.9795 36.3216 41.1591 36.3067 41.3387 36.2767C42.7756 36.157 44.0179 35.8128 45.0656 35.244C46.1133 34.6753 46.9065 33.867 47.4453 32.8193C47.6549 33.448 48.1039 33.9419 48.7924 34.3011C49.4809 34.6603 50.2891 34.8399 51.217 34.8399C52.2049 34.8399 53.1478 34.6453 54.0458 34.2562L54.6745 28.6435ZM42.596 31.0682C42.0871 31.0682 41.668 30.9335 41.3387 30.6641C41.0095 30.3647 40.8448 29.9456 40.8448 29.4068C40.8448 28.1197 41.5034 27.1618 42.8205 26.5331L43.7185 26.0841C44.1376 25.8746 44.5417 25.68 44.9308 25.5004C45.3499 25.2909 45.6642 25.0664 45.8738 24.8269V27.9251C45.7241 28.853 45.3649 29.6014 44.7961 30.1702C44.2274 30.709 43.5988 31.0083 42.9103 31.0682H42.596Z" fill="#FF7F7F"/>
<path d="M61.1206 35.8277V1.70268L68.6191 1.07406L73.1093 3.31912V37.4442L65.6107 38.0279L61.1206 35.8277ZM61.5696 2.10679V35.3338L68.1701 34.795V1.56797L61.5696 2.10679Z" fill="#FF7F7F"/>
<path d="M76.3923 35.8277V11.132L79.4456 10.9075L76.3025 9.33591V1.70268L83.8011 1.07406L88.2912 3.31912V10.9524L85.1032 11.2218L88.1565 12.7484V37.3993L80.8825 38.0279L76.3923 35.8277ZM76.7515 2.10679V8.842L83.3521 8.30318V1.56797L76.7515 2.10679ZM76.8413 11.5361V35.3338L83.2173 34.795V10.9973L76.8413 11.5361Z" fill="#FF7F7F"/>
<path d="M107.787 35.4236L106.125 30.0803L102.578 30.3947L100.378 38.2524L92.7449 38.9259L88.2547 36.6809L98.0881 1.61287L105.497 0.984253L109.987 3.22932L120 37.0401L112.277 37.6687L107.787 35.4236ZM98.4473 2.06189L88.9282 36.142L95.4838 35.6032L97.7289 27.7455L105.721 27.0271L108.101 34.9746L114.881 34.3909L105.138 1.47817L98.4473 2.06189ZM99.3005 21.1899C99.8692 19.334 100.333 17.5678 100.692 15.8915C101.082 14.2152 101.411 12.5389 101.68 10.8626H101.86C102.099 12.5089 102.399 14.1254 102.758 15.7119C103.147 17.2685 103.611 18.9448 104.15 20.7409L99.3005 21.1899Z" fill="#FF7F7F"/>
</svg>
