<svg version="1.0" xmlns="http://www.w3.org/2000/svg"
 width="383.674942pt" height="426.829446pt" viewBox="0 0 383.674942 426.829446"
 preserveAspectRatio="xMidYMid meet">
<g transform="translate(-64.133564,469.999398) scale(0.100000,-0.100000)"
fill="#000000" stroke="none">
<path d="M1625 4677 c-65 -37 -678 -448 -703 -471 -39 -35 -62 -90 -62 -150 0
-67 9 -93 52 -141 62 -71 153 -93 234 -56 22 10 196 122 386 249 309 206 350
236 374 278 48 82 32 196 -38 261 -60 56 -173 70 -243 30z"/>
<path d="M3310 4684 c-110 -48 -158 -188 -99 -295 21 -39 63 -70 364 -272 187
-126 363 -240 390 -253 89 -42 178 -24 243 51 43 48 52 74 52 141 0 60 -23
115 -62 150 -28 26 -670 454 -715 478 -40 20 -126 20 -173 0z"/>
<path d="M2445 4264 c-395 -38 -692 -142 -987 -346 -602 -416 -915 -1170 -789
-1898 129 -740 683 -1344 1405 -1530 187 -48 325 -63 536 -57 198 5 313 21
470 67 332 96 589 248 835 495 147 147 219 240 311 400 426 741 302 1689 -299
2297 -294 298 -671 491 -1077 552 -100 15 -337 27 -405 20z m229 -884 c20 -14
49 -43 64 -64 l27 -39 3 -421 2 -421 200 -200 c127 -128 205 -213 215 -237 20
-50 19 -114 -4 -163 -19 -43 -78 -100 -118 -116 -42 -16 -131 -11 -171 10 -20
11 -146 129 -279 263 -196 198 -243 250 -253 283 -8 28 -10 181 -8 522 l3 481
30 43 c45 64 104 91 186 87 50 -3 75 -10 103 -28z"/>
</g>
</svg>
