<?xml version="1.0" standalone="no"?>
<!DOCTYPE svg PUBLIC "-//W3C//DTD SVG 20010904//EN"
 "http://www.w3.org/TR/2001/REC-SVG-20010904/DTD/svg10.dtd">
<svg version="1.0" xmlns="http://www.w3.org/2000/svg"
 width="511.716771pt" height="511.055732pt" viewBox="0 0 511.716771 511.055732"
 preserveAspectRatio="xMidYMid meet">
<metadata>
Created by potrace 1.12, written by Peter Selinger 2001-2015
</metadata>
<g transform="translate(-0.124840,511.558459) scale(0.100000,-0.100000)"
fill="#000000" stroke="none">
<path d="M2315 5109 c-799 -83 -1501 -518 -1927 -1196 -516 -820 -516 -1886 1
-2708 410 -653 1070 -1075 1856 -1187 137 -20 523 -16 665 5 585 91 1074 337
1472 743 205 209 344 405 474 669 165 335 246 658 261 1035 37 983 -496 1897
-1377 2362 -244 128 -531 221 -825 264 -123 18 -478 26 -600 13z m445 -779
c407 -97 690 -500 640 -913 -23 -191 -99 -354 -228 -489 -132 -138 -286 -221
-467 -253 -111 -19 -180 -19 -291 0 -179 32 -336 117 -466 253 -403 422 -266
1111 269 1353 153 70 371 89 543 49z m505 -2108 c164 -46 298 -125 411 -244
118 -124 190 -266 219 -433 20 -117 19 -180 -5 -257 -27 -87 -71 -141 -182
-226 -513 -391 -1164 -495 -1772 -285 -203 70 -441 206 -593 340 -114 99 -152
223 -124 403 57 365 334 647 704 715 56 11 208 13 667 11 581 -2 597 -2 675
-24z"/>
</g>
</svg>
