
<svg version="1.0" xmlns="http://www.w3.org/2000/svg"
 width="457.965031pt" height="457.872179pt" viewBox="0 0 457.965031 457.872179"
 preserveAspectRatio="xMidYMid meet">
<g transform="translate(-27.034969,484.871298) scale(0.100000,-0.100000)"
fill="#000000" stroke="none">
<path d="M535 4829 c-158 -51 -266 -203 -265 -373 1 -45 52 -268 203 -871
l203 -810 610 -56 c335 -32 846 -79 1137 -105 290 -27 527 -51 527 -54 0 -3
-237 -27 -527 -54 -291 -26 -802 -73 -1137 -105 l-610 -56 -203 -810 c-219
-876 -220 -880 -183 -996 63 -199 279 -313 480 -253 67 20 3869 1920 3927
1963 91 66 153 192 153 311 0 119 -62 245 -153 311 -58 43 -3860 1943 -3927
1963 -71 21 -161 19 -235 -5z"/>
</g>
</svg>
